HIERARCHY
ROOT Junyuan_V1:Solving:Hips
{
	OFFSET 0.000000 0.000000 0.000000
	CHANNELS 6 Xposition Yposition Zposition Xrotation Yrotation Zrotation
	JOINT Junyuan_V1:Solving:Spine
	{
		OFFSET 0.000000 -11.180205 2.228564
		CHANNELS 6 Xposition Yposition Zposition Xrotation Yrotation Zrotation
		JOINT Junyuan_V1:Solving:Spine1
		{
			OFFSET 0.000000 -8.682996 1.531049
			CHANNELS 6 Xposition Yposition Zposition Xrotation Yrotation Zrotation
			JOINT Junyuan_V1:Solving:Spine2
			{
				OFFSET 0.000000 -8.783394 0.768450
				CHANNELS 6 Xposition Yposition Zposition Xrotation Yrotation Zrotation
				JOINT Junyuan_V1:Solving:Spine3
				{
					OFFSET 0.000000 -8.816944 0.000000
					CHANNELS 6 Xposition Yposition Zposition Xrotation Yrotation Zrotation
					JOINT Junyuan_V1:Solving:Neck
					{
						OFFSET 0.000000 -11.336071 -1.133605
						CHANNELS 6 Xposition Yposition Zposition Xrotation Yrotation Zrotation
						JOINT Junyuan_V1:Solving:Neck1
						{
							OFFSET 0.000000 -7.643246 -0.668695
							CHANNELS 6 Xposition Yposition Zposition Xrotation Yrotation Zrotation
							JOINT Junyuan_V1:Solving:Head
							{
								OFFSET 0.000000 -7.555870 -1.332303
								CHANNELS 6 Xposition Yposition Zposition Xrotation Yrotation Zrotation
								JOINT Junyuan_V1:Solving:HeadEnd
								{
									OFFSET 0.000000 -9.728081 0.000002
									CHANNELS 6 Xposition Yposition Zposition Xrotation Yrotation Zrotation
									End Site
									{
										OFFSET 0.000000 -9.728081 0.000002
									}
								}
							}
						}
					}
					JOINT Junyuan_V1:Solving:RightShoulder
					{
						OFFSET 0.000000 -8.097195 -5.270916
						CHANNELS 6 Xposition Yposition Zposition Xrotation Yrotation Zrotation
						JOINT Junyuan_V1:Solving:RightArm
						{
							OFFSET -20.762394 -0.000008 0.000000
							CHANNELS 6 Xposition Yposition Zposition Xrotation Yrotation Zrotation
							JOINT Junyuan_V1:Solving:RightForeArm
							{
								OFFSET -29.048946 -0.000008 0.000000
								CHANNELS 6 Xposition Yposition Zposition Xrotation Yrotation Zrotation
								JOINT Junyuan_V1:Solving:RightHand
								{
									OFFSET -22.031235 -0.000008 0.000000
									CHANNELS 6 Xposition Yposition Zposition Xrotation Yrotation Zrotation
									JOINT Junyuan_V1:Solving:RightHandThumb1
									{
										OFFSET -3.579254 2.890213 -2.661497
										CHANNELS 6 Xposition Yposition Zposition Xrotation Yrotation Zrotation
										End Site
										{
											OFFSET -5.229485 0.000000 -5.277840
										}
									}
									JOINT Junyuan_V1:Solving:RightHandMiddle1
									{
										OFFSET -9.544678 -0.000004 0.061184
										CHANNELS 6 Xposition Yposition Zposition Xrotation Yrotation Zrotation
										End Site
										{
											OFFSET -7.429878 -0.000004 0.000000
										}
									}
								}
							}
						}
					}
					JOINT Junyuan_V1:Solving:LeftShoulder
					{
						OFFSET 0.000000 -8.097195 -5.270916
						CHANNELS 6 Xposition Yposition Zposition Xrotation Yrotation Zrotation
						JOINT Junyuan_V1:Solving:LeftArm
						{
							OFFSET 20.762394 -0.000008 0.000000
							CHANNELS 6 Xposition Yposition Zposition Xrotation Yrotation Zrotation
							JOINT Junyuan_V1:Solving:LeftForeArm
							{
								OFFSET 29.048946 -0.000008 0.000000
								CHANNELS 6 Xposition Yposition Zposition Xrotation Yrotation Zrotation
								JOINT Junyuan_V1:Solving:LeftHand
								{
									OFFSET 22.031235 -0.000008 0.000000
									CHANNELS 6 Xposition Yposition Zposition Xrotation Yrotation Zrotation
									JOINT Junyuan_V1:Solving:LeftHandThumb1
									{
										OFFSET 3.579254 2.890213 -2.661497
										CHANNELS 6 Xposition Yposition Zposition Xrotation Yrotation Zrotation
										End Site
										{
											OFFSET 5.229485 0.000000 -5.277840
										}
									}
									JOINT Junyuan_V1:Solving:LeftHandMiddle1
									{
										OFFSET 9.544678 -0.000004 0.061184
										CHANNELS 6 Xposition Yposition Zposition Xrotation Yrotation Zrotation
										End Site
										{
											OFFSET 7.429878 -0.000004 0.000000
										}
									}
								}
							}
						}
					}
				}
			}
		}
	}
	JOINT Junyuan_V1:Solving:RightUpLeg
	{
		OFFSET -10.825166 0.000000 0.000000
		CHANNELS 6 Xposition Yposition Zposition Xrotation Yrotation Zrotation
		JOINT Junyuan_V1:Solving:RightLeg
		{
			OFFSET 0.000000 43.678444 -0.000006
			CHANNELS 6 Xposition Yposition Zposition Xrotation Yrotation Zrotation
			JOINT Junyuan_V1:Solving:RightFoot
			{
				OFFSET 0.000000 36.488441 -0.000006
				CHANNELS 6 Xposition Yposition Zposition Xrotation Yrotation Zrotation
				JOINT Junyuan_V1:Solving:RightForeFoot
				{
					OFFSET 0.000000 3.967834 -0.000000
					CHANNELS 6 Xposition Yposition Zposition Xrotation Yrotation Zrotation
					JOINT Junyuan_V1:Solving:RightToeBase
					{
						OFFSET 0.000000 0.000000 -15.539299
						CHANNELS 6 Xposition Yposition Zposition Xrotation Yrotation Zrotation
						JOINT Junyuan_V1:Solving:RightToeBaseEnd
						{
							OFFSET 0.000000 0.000000 -3.486985
							CHANNELS 6 Xposition Yposition Zposition Xrotation Yrotation Zrotation
							End Site
							{
								OFFSET 0.000000 -3.486992 0.000000
							}
						}
					}
				}
			}
		}
	}
	JOINT Junyuan_V1:Solving:LeftUpLeg
	{
		OFFSET 10.825166 0.000000 0.000000
		CHANNELS 6 Xposition Yposition Zposition Xrotation Yrotation Zrotation
		JOINT Junyuan_V1:Solving:LeftLeg
		{
			OFFSET 0.000000 43.678444 -0.000006
			CHANNELS 6 Xposition Yposition Zposition Xrotation Yrotation Zrotation
			JOINT Junyuan_V1:Solving:LeftFoot
			{
				OFFSET 0.000000 36.488441 -0.000006
				CHANNELS 6 Xposition Yposition Zposition Xrotation Yrotation Zrotation
				JOINT Junyuan_V1:Solving:LeftForeFoot
				{
					OFFSET 0.000000 3.967834 -0.000000
					CHANNELS 6 Xposition Yposition Zposition Xrotation Yrotation Zrotation
					JOINT Junyuan_V1:Solving:LeftToeBase
					{
						OFFSET 0.000000 0.000000 -15.539299
						CHANNELS 6 Xposition Yposition Zposition Xrotation Yrotation Zrotation
						JOINT Junyuan_V1:Solving:LeftToeBaseEnd
						{
							OFFSET 0.000000 0.000000 -3.974441
							CHANNELS 6 Xposition Yposition Zposition Xrotation Yrotation Zrotation
							End Site
							{
								OFFSET 0.000000 -3.974442 0.000000
							}
						}
					}
				}
			}
		}
	}
}
MOTION
Frames: 4
Frame Time: 0.041667
-51.656582 -15.283340 -74.225456 47.884295 -179.289829 3.386161 0.000002 -11.180231 2.228566 15.417504 0.610864 -0.044139 0.000000 -8.683000 1.531052 17.340401 0.081202 -0.098998 -0.000002 -8.783402 0.768466 21.401542 -4.816766 -2.271578 0.000002 -8.816945 -0.000011 -9.650253 -0.543158 -0.844417 -0.000007 -11.336066 -1.133613 -35.713430 -8.408877 4.801167 0.000004 -7.643244 -0.668708 9.138808 1.907408 0.359195 0.000008 -7.555859 -1.332295 1.971849 0.103204 0.242752 0.000016 -9.728104 -0.000003 0.000002 -0.000002 -0.000001 -0.000009 -8.097202 -5.270935 0.000012 5.103084 28.267552 -20.762394 -0.000020 0.000008 -80.774213 -3.638878 -86.041682 -29.048943 -0.000009 -0.000002 -39.242121 -21.643789 -16.765736 -22.031244 -0.000014 0.000008 4.425276 -7.863413 29.495462 -3.579254 2.890201 -2.661484 0.000002 -0.000005 -0.000000 -9.544704 -0.000014 0.061187 -0.000000 -0.000001 -0.000004 -0.000012 -8.097206 -5.270935 -0.000002 -10.654141 -16.659308 20.762403 -0.000014 -0.000014 -90.207333 30.281142 86.397610 29.048964 -0.000026 0.000001 -52.856768 9.553488 12.358508 22.031233 -0.000003 -0.000002 6.972628 10.172969 -34.700547 3.579254 2.890214 -2.661489 0.000008 -0.000002 -0.000000 9.544677 0.000000 0.061189 -0.000003 -0.000001 -0.000001 -10.825158 -0.000016 0.000000 -88.398590 14.519389 14.736348 0.000014 43.678455 -0.000006 58.451564 0.000000 0.000003 -0.000011 36.488415 -0.000002 -7.409250 9.784749 -2.479667 0.000003 3.967827 0.000000 0.000001 -0.000003 0.000000 0.000006 -0.000009 -15.539292 11.901255 0.000003 -0.000002 0.000002 0.000000 -3.486980 0.000001 -0.000005 0.000001 10.825171 -0.000011 -0.000005 -90.030868 -13.003377 -31.357986 -0.000006 43.678459 0.000009 50.658871 -0.000002 0.000001 -0.000014 36.488426 0.000003 1.144597 6.634414 8.447343 -0.000006 3.967827 0.000021 -0.000001 0.000001 -0.000000 -0.000006 -0.000000 -15.539291 1.102847 -0.000006 -0.000000 -0.000003 -0.000000 -3.974445 -0.000001 -0.000003 -0.000000 
-51.955807 -15.248710 -74.188133 47.703472 -179.152351 3.401282 0.000001 -11.180199 2.228557 15.357445 0.624482 -0.027976 0.000004 -8.682999 1.531057 17.397844 0.074312 -0.075426 -0.000005 -8.783399 0.768449 21.576069 -4.899588 -2.095531 0.000008 -8.816950 0.000010 -9.661353 -0.543593 -0.843160 0.000004 -11.336094 -1.133582 -35.834342 -8.539813 4.939442 0.000003 -7.643269 -0.668707 9.314559 2.006039 0.118755 0.000004 -7.555872 -1.332294 1.871049 0.108161 0.219990 -0.000001 -9.728088 0.000002 0.000001 0.000000 -0.000001 0.000013 -8.097206 -5.270895 0.000015 5.097437 28.726061 -20.762379 -0.000015 0.000013 -80.751073 -2.566091 -85.905946 -29.048944 -0.000019 -0.000013 -39.132404 -22.003390 -16.952806 -22.031229 -0.000016 0.000009 4.349931 -7.737593 29.465706 -3.579256 2.890214 -2.661502 0.000005 0.000003 0.000008 -9.544692 -0.000010 0.061188 0.000003 0.000002 0.000001 0.000009 -8.097218 -5.270895 0.000002 -10.642470 -16.877428 20.762409 -0.000012 -0.000021 -90.532443 29.482385 86.265146 29.048950 -0.000018 0.000005 -52.485930 9.648561 12.315285 22.031240 -0.000017 -0.000004 7.174062 10.337613 -35.046951 3.579256 2.890210 -2.661504 -0.000000 0.000005 0.000003 9.544705 -0.000020 0.061172 -0.000001 0.000004 0.000006 -10.825163 0.000005 -0.000005 -88.568661 14.447694 14.807992 0.000009 43.678452 0.000013 58.279887 0.000004 0.000002 0.000000 36.488445 -0.000001 -7.202014 9.652336 -2.443198 -0.000000 3.967827 -0.000003 0.000001 -0.000005 0.000000 0.000002 0.000005 -15.539307 11.752689 0.000001 0.000000 -0.000009 0.000001 -3.486978 0.000001 -0.000001 0.000001 10.825165 -0.000007 -0.000001 -90.182990 -12.652892 -31.090191 0.000004 43.678440 0.000009 51.111880 -0.000001 -0.000001 0.000001 36.488415 0.000012 0.797779 6.078679 8.460238 -0.000002 3.967834 -0.000010 -0.000000 0.000000 -0.000000 -0.000016 -0.000005 -15.539301 1.257442 0.000002 -0.000000 -0.000018 -0.000008 -3.974433 -0.000001 0.000002 -0.000000 
-52.221386 -15.203779 -74.182190 47.527574 -178.948525 3.527523 0.000001 -11.180205 2.228573 15.402807 0.614115 -0.001834 -0.000005 -8.682997 1.531050 17.475602 0.055138 -0.092227 0.000006 -8.783390 0.768461 21.595649 -5.042632 -1.957688 -0.000002 -8.816952 0.000035 -9.679245 -0.564937 -0.869958 -0.000002 -11.336067 -1.133611 -35.607965 -8.407824 4.777229 -0.000010 -7.643240 -0.668711 9.023877 2.047769 0.394698 -0.000000 -7.555873 -1.332300 1.693451 0.112300 0.250147 0.000008 -9.728096 0.000002 0.000004 -0.000001 -0.000000 -0.000004 -8.097202 -5.270907 0.000016 5.190166 29.085281 -20.762383 -0.000015 0.000007 -80.855977 -1.755396 -85.899806 -29.048939 -0.000015 -0.000007 -38.943099 -22.355083 -17.085957 -22.031229 -0.000007 -0.000021 4.237811 -7.496409 29.595234 -3.579242 2.890225 -2.661506 0.000004 -0.000005 0.000006 -9.544681 0.000001 0.061153 0.000000 -0.000002 -0.000004 -0.000006 -8.097214 -5.270907 0.000003 -10.702719 -17.017210 20.762403 0.000000 0.000007 -90.758796 29.033731 86.132811 29.048952 -0.000014 0.000005 -52.812631 9.625664 12.428844 22.031223 -0.000024 -0.000001 7.530564 10.849742 -35.080176 3.579268 2.890197 -2.661466 0.000004 0.000002 -0.000002 9.544672 0.000001 0.061193 0.000005 -0.000001 -0.000007 -10.825172 0.000001 0.000010 -88.619840 14.513293 14.734052 -0.000004 43.678440 0.000005 57.989228 0.000000 0.000004 -0.000003 36.488445 -0.000003 -7.111405 9.563319 -2.496558 -0.000006 3.967842 0.000004 -0.000001 0.000000 0.000000 0.000006 -0.000004 -15.539301 11.955990 -0.000002 -0.000000 0.000004 -0.000007 -3.486983 0.000002 -0.000005 -0.000001 10.825167 -0.000000 0.000010 -90.460665 -12.276083 -31.001477 -0.000009 43.678452 0.000009 51.547878 0.000005 0.000001 0.000013 36.488434 -0.000003 0.705905 5.761106 8.264073 -0.000015 3.967827 0.000016 -0.000000 0.000002 0.000000 0.000001 0.000001 -15.539310 0.877211 0.000004 -0.000000 0.000000 -0.000007 -3.974447 0.000000 0.000000 -0.000000 
-52.505116 -15.168505 -74.206474 47.339768 -178.750299 3.624210 0.000001 -11.180212 2.228564 15.388631 0.632104 -0.003187 -0.000001 -8.682975 1.531047 17.519319 0.052878 -0.103070 0.000002 -8.783392 0.768463 21.929362 -5.055210 -1.903022 -0.000003 -8.816943 0.000008 -9.861809 -0.593431 -0.835600 -0.000001 -11.336081 -1.133594 -35.262720 -8.401577 4.950251 -0.000002 -7.643257 -0.668705 8.401309 1.972041 0.340482 0.000003 -7.555873 -1.332289 1.684977 0.110126 0.230328 0.000004 -9.728081 -0.000001 -0.000003 -0.000000 0.000000 0.000000 -8.097202 -5.270917 0.000011 5.203151 29.561998 -20.762390 -0.000002 0.000003 -81.044101 -0.968072 -85.997874 -29.048960 -0.000016 -0.000013 -38.980088 -22.646785 -17.306200 -22.031235 -0.000012 -0.000009 4.234652 -7.453727 29.716582 -3.579258 2.890206 -2.661506 -0.000003 0.000002 0.000005 -9.544677 -0.000008 0.061181 -0.000003 0.000005 0.000001 -0.000001 -8.097214 -5.270917 -0.000001 -10.951362 -17.216325 20.762396 -0.000014 -0.000005 -90.842178 28.562669 85.886419 29.048960 -0.000013 0.000012 -52.947821 9.795570 12.699296 22.031219 -0.000032 0.000007 7.607537 10.812982 -35.448648 3.579260 2.890225 -2.661487 0.000003 -0.000002 -0.000003 9.544683 -0.000004 0.061202 0.000003 -0.000006 -0.000002 -10.825162 -0.000003 -0.000007 -88.740078 14.549836 14.714611 0.000004 43.678448 0.000024 57.744263 0.000004 0.000002 -0.000006 36.488426 0.000002 -6.786340 9.496948 -2.591892 0.000001 3.967827 -0.000001 -0.000002 -0.000003 -0.000000 0.000005 -0.000002 -15.539295 11.793731 0.000002 -0.000000 0.000003 -0.000007 -3.486974 0.000001 -0.000007 -0.000001 10.825155 -0.000003 -0.000000 -90.681409 -11.948718 -30.881806 0.000017 43.678448 0.000020 51.896406 -0.000003 -0.000001 0.000022 36.488419 0.000001 0.472670 5.477770 8.141344 0.000009 3.967827 -0.000006 -0.000000 -0.000000 0.000000 0.000001 -0.000002 -15.539286 0.797608 0.000003 0.000000 -0.000003 -0.000008 -3.974441 -0.000000 0.000002 -0.000000 
